<?xml version="1.0" encoding="UTF-8"?><svg xmlns="http://www.w3.org/2000/svg" width="64" height="73" viewBox="0 0 64 73"><defs><linearGradient id="hangouts-icon-a" x1="0%" x2="77.789%" y1="0%" y2="86.126%"><stop offset="0%" stop-opacity=".348"/><stop offset="100%" stop-opacity="0"/></linearGradient></defs><g fill="none"><path fill="currentColor" d="M32.08264,0.82055 C49.37884,0.82069 63.38619,14.63658 63.38733,31.68187 C63.38333,35.88847 62.50764,40.0514 60.81311,43.91234 L60.81311,43.91434 L60.81111,43.91834 C55.42551,56.74022 45.28961,67.03672 32.48884,72.77772 C32.48884,72.77772 32.48884,64.21425 32.48884,63.34217 C32.48884,62.47009 32.56574,62.54528 32.08257,62.54528 C14.78553,62.54537 0.77794,48.73032 0.77788,31.68396 C0.77793,14.63759 14.78553,0.82059 32.08257,0.82068 L32.08264,0.82055 Z"/><path fill="url(#hangouts-icon-a)" d="M29.7826,23.32307 L29.7826,36.99226 L22.68757,29.8189 L16.11342,36.99226 L44.80043,65.6797 C45.69945,64.95882 46.57348,64.21032 47.42325,63.43738 C47.9876943,62.9242236 48.5413617,62.3996624 49.0839,61.86403 C49.8086,61.14809 50.51279,60.41307 51.19611,59.65938 C51.7898976,59.0044019 52.3677258,58.3355276 52.9291,57.65333 C53.23007,57.28773 53.52698,56.91879 53.81849,56.54565 L53.85449,56.58155 C56.8436296,52.7474388 59.3082501,48.542319 61.18493,44.0744 C61.9692472,42.2736456 62.5801286,40.4041695 63.00951,38.49065 L47.93433,23.32302 L47.93433,36.99221 L40.8393,29.81885 L38.63251,32.2268 L29.7826,23.32307 Z" opacity=".6"/><path fill="#FFF" d="M16.11332 23.32306L16.11332 36.99225 23.66717 36.99225 23.66717 45.07469C27.2035091 44.3751984 29.7795854 40.9707185 29.78293 36.99225 29.7827901 36.9876832 29.7826468 36.9831165 29.7825 36.97855L29.7825 23.32306 16.11332 23.32306zM34.2651 23.32307L34.2651 36.99226 41.81895 36.99226 41.81895 45.0747C45.3552891 44.3752084 47.9313654 40.9707285 47.93471 36.99226 47.9345668 36.9876932 47.9344201 36.9831265 47.93427 36.97856L47.93427 23.32307 34.2651 23.32307z"/></g></svg>
