<?xml version="1.0" encoding="UTF-8"?><svg xmlns="http://www.w3.org/2000/svg" width="48" height="48" viewBox="0 0 48 48"><g fill="none"><circle cx="24" cy="24" r="24" fill="currentColor"/><polygon fill="#FFF" points="12 19 17 19 17 36 12 36"/><path fill="#FFF" d="M14.484375 17L14.457031 17C12.964844 17 12 15.886719 12 14.5 12 13.078125 12.996094 12 14.515625 12 16.035156 12 16.972656 13.078125 17 14.5 17 15.886719 16.035156 17 14.484375 17zM36 36L31 36 31 26.902344C31 24.703125 29.773438 23.203125 27.808594 23.203125 26.308594 23.203125 25.496094 24.214844 25.101563 25.191406 24.957031 25.542969 25 26.511719 25 27L25 36 20 36 20 19 25 19 25 21.617188C25.722656 20.5 26.851563 19 29.738281 19 33.316406 19 36 21.25 36 26.273438L36 36z"/></g></svg>
