<?xml version="1.0" encoding="UTF-8"?><svg xmlns="http://www.w3.org/2000/svg" width="48" height="48" viewBox="0 0 48 48"><g fill="none"><circle cx="24" cy="24" r="24" fill="currentColor"/><path fill="#FFF" d="M13.5454524,17.3775909 C13.5788385,17.0477246 13.4530462,16.7216884 13.2067323,16.4996759 L10.6976945,13.4771401 L10.6976945,13.025641 L18.4882568,13.025641 L24.5099476,26.2319902 L29.8040174,13.025641 L37.2307692,13.025641 L37.2307692,13.4771401 L35.0855419,15.5339695 C34.9005998,15.6749431 34.8088591,15.9066433 34.8471834,16.1359683 L34.8471834,31.2486472 C34.8088591,31.4779721 34.9005998,31.7096722 35.0855419,31.8506459 L37.1805885,33.9074753 L37.1805885,34.3589744 L26.6426297,34.3589744 L26.6426297,33.9074753 L28.8129475,31.8004794 C29.0262156,31.5872714 29.0262156,31.5245633 29.0262156,31.1984806 L29.0262156,18.9829211 L22.9919797,34.3088078 L22.1765424,34.3088078 L15.1512366,18.9829211 L15.1512366,29.2545259 C15.0926621,29.6863731 15.2360861,30.1211487 15.5401374,30.4334404 L18.3628049,33.8573087 L18.3628049,34.3088078 L10.3589744,34.3088078 L10.3589744,33.8573087 L13.1816419,30.4334404 C13.4834794,30.120631 13.6185403,29.6829713 13.5454524,29.2545259 L13.5454524,17.3775909 Z"/></g></svg>
