<?xml version="1.0" encoding="UTF-8"?><svg xmlns="http://www.w3.org/2000/svg" width="48" height="48" viewBox="0 0 48 48"><defs><linearGradient id="telegram-a" x1="61.235%" x2="74.706%" y1="43.69%" y2="80.24%"><stop offset="0%" stop-color="#EFF7FC"/><stop offset="100%" stop-color="#FFF"/></linearGradient></defs><g fill="none"><circle cx="24" cy="24" r="24" fill="#2CA6E1"/><g transform="translate(9.6 14.4)"><path fill="#C7D9E9" d="M10,20.6 C9.22248,20.6 9.3546,20.30642 9.08644,19.5661 L6.8,12.04118 L24.4,1.6"/><path fill="#A9C9DD" d="M10,20.6 C10.6,20.6 10.8651,20.3256 11.2,20 L14.4,16.8884 L10.4084,14.4814"/><path fill="url(#telegram-a)" d="M10.408,14.482 L20.08,21.6278 C21.1837,22.23678 21.98028,21.92148 22.2552,20.6031 L26.1922,2.0505 C26.59528,0.43446 25.57618,-0.2985 24.52032,0.18086 L1.40232,9.09506 C-0.1757,9.728 -0.1665,10.60838 1.11468,11.00066 L7.04728,12.85232 L20.78188,4.18732 C21.43026,3.79414 22.02534,4.005522 21.53692,4.439"/></g></g></svg>