<?xml version="1.0" encoding="UTF-8"?><svg xmlns="http://www.w3.org/2000/svg" width="48" height="48" viewBox="0 0 48 48"><g fill="none"><circle cx="24" cy="24" r="24" fill="#01B6EF"/><path fill="#FFF" d="M35,18.1308776 C34.2283853,18.4923077 33.3976052,18.7367281 32.526149,18.8459372 C33.4160944,18.2842904 34.0989611,17.3937161 34.4206727,16.3328277 C33.5874274,16.8528711 32.6666667,17.2312026 31.6830428,17.4340195 C30.899102,16.5512459 29.7786582,16 28.5386512,16 C26.1609438,16 24.231907,18.0346696 24.231907,20.5438787 C24.231907,20.9001083 24.2688854,21.2459372 24.342842,21.5787649 C20.762106,21.3889491 17.5881317,19.5817985 15.4618771,16.8294691 C15.0908611,17.5029252 14.8788519,18.2842904 14.8788519,19.1163597 C14.8788519,20.692091 15.6393731,22.0832069 16.7955626,22.8983749 C16.0905089,22.876273 15.4248987,22.6695558 14.8431062,22.3315276 L14.8431062,22.3874323 C14.8431062,24.5898158 16.3284029,26.4268689 18.3005811,26.8429036 C17.939426,26.9495125 17.558549,27.0028169 17.165346,27.0028169 C16.8880085,27.0028169 16.6168339,26.9755146 16.3542877,26.9222102 C16.9027998,28.7267606 18.4928685,30.0411701 20.3787639,30.076273 C18.9045607,31.2957746 17.0457827,32.0225352 15.0279979,32.0225352 C14.6804015,32.0225352 14.3365029,32.0017335 14,31.96013 C15.9068498,33.2472373 18.1723895,34 20.6043317,34 C28.5300229,34 32.8626519,27.0769231 32.8626519,21.0717226 C32.8626519,20.8741062 32.858954,20.6764897 32.8515584,20.4827736 C33.6934319,19.8418202 34.4243705,19.0422535 35,18.1308776"/></g></svg>