<?xml version="1.0" encoding="UTF-8"?><svg xmlns="http://www.w3.org/2000/svg" width="48" height="48" viewBox="0 0 48 48"><g fill="none"><circle cx="24" cy="24" r="24" fill="currentColor"/><path fill="#FFF" d="M23.6152992,34.0195064 L25.4113275,34.0195064 C25.4113275,34.0195064 25.9244785,33.9339813 26.2665791,33.6774058 C26.5231546,33.4208303 26.5231546,32.9076794 26.5231546,32.9076794 C26.5231546,32.9076794 26.5231546,30.512975 27.6349816,30.1708743 C28.7468087,29.8287737 30.1152112,32.4800536 31.6546641,33.5063555 C32.7664911,34.2760819 33.6217427,34.1050316 33.6217427,34.1050316 L37.6414251,34.0195064 C37.6414251,34.0195064 39.6940289,33.8484561 38.7532522,32.2234781 C38.667727,32.0524278 38.1545761,31.0261259 35.7598717,28.8024718 C33.2796421,26.4932925 33.6217427,26.8353932 36.6151232,22.8157107 C38.4111515,20.3354812 39.180878,18.8815535 38.9243025,18.1973522 C38.667727,17.5986761 37.3848497,17.7697264 37.3848497,17.7697264 L32.8520163,17.7697264 C32.8520163,17.7697264 32.5099156,17.6842013 32.2533402,17.8552516 C31.9967647,18.0263019 31.8257144,18.3684025 31.8257144,18.3684025 C31.8257144,18.3684025 31.1415131,20.249956 30.2007364,21.874934 C28.2336577,25.2959403 27.3784062,25.4669906 27.0363055,25.2104152 C26.2665791,24.6972642 26.4376294,23.2433365 26.4376294,22.2170346 C26.4376294,18.9670786 26.9507804,17.5131509 25.4968527,17.1710503 C24.9837017,17.0855252 24.6416011,17 23.3587237,17 C21.7337457,17 20.3653432,17 19.5956168,17.3421006 C19.0824658,17.5986761 18.6548401,18.1118271 18.9114155,18.1973522 C19.167991,18.1973522 19.8521923,18.3684025 20.1942929,18.8815535 C20.6219187,19.4802296 20.6219187,20.9341573 20.6219187,20.9341573 C20.6219187,20.9341573 20.9640193,24.8683145 20.1087677,25.3814655 C19.5100916,25.7235661 18.6548401,25.0393648 16.8588117,21.9604592 C15.918035,20.4210063 15.2338337,18.624978 15.2338337,18.624978 C15.2338337,18.624978 15.0627834,18.2828774 14.8917331,18.1118271 C14.6351576,17.9407767 14.2075318,17.8552516 14.2075318,17.8552516 L9.93127394,17.8552516 C9.93127394,17.8552516 9.33259784,17.8552516 9.07602236,18.1118271 C8.90497205,18.3684025 9.07602236,18.8815535 9.07602236,18.8815535 C9.07602236,18.8815535 12.4115035,26.6643429 16.1746105,30.5985001 C19.5956168,34.2760819 23.6152992,34.0195064 23.6152992,34.0195064"/></g></svg>
