<?xml version="1.0" encoding="UTF-8"?><svg xmlns="http://www.w3.org/2000/svg" xmlns:xlink="http://www.w3.org/1999/xlink" width="48" height="48" viewBox="0 0 48 48"><defs><polygon id="youtube-a" points=".016 .257 31.865 .257 31.865 23 .016 23"/></defs><g fill="none" fill-rule="evenodd"><circle cx="24" cy="24" r="24" fill="#FF0002" fill-rule="nonzero"/><g transform="translate(8 13)"><mask id="youtube-b" fill="#fff"><use xlink:href="#youtube-a"/></mask><path fill="#FFF" d="M31.1989508,3.80810465 C30.8325246,2.41045349 29.752918,1.30939535 28.3819016,0.93577907 C25.896918,0.257011628 15.9323279,0.257011628 15.9323279,0.257011628 C15.9323279,0.257011628 5.968,0.257011628 3.48301639,0.93577907 C2.112,1.30939535 1.03239344,2.41045349 0.665967213,3.80810465 C0,6.34211628 0,11.6283721 0,11.6283721 C0,11.6283721 0,16.9148953 0.665967213,19.4486395 C1.03239344,20.8462907 2.112,21.9476163 3.48301639,22.3209651 C5.968,23 15.9323279,23 15.9323279,23 C15.9323279,23 25.896918,23 28.3819016,22.3209651 C29.752918,21.9476163 30.8325246,20.8462907 31.1989508,19.4486395 C31.864918,16.9148953 31.864918,11.6283721 31.864918,11.6283721 C31.864918,11.6283721 31.864918,6.34211628 31.1989508,3.80810465" mask="url(#youtube-b)"/><polyline fill="#FF0002" points="12.852 16.433 21.131 11.56 12.852 6.686 12.852 16.433" mask="url(#youtube-b)"/></g></g></svg>