<?xml version="1.0" encoding="UTF-8"?><svg xmlns="http://www.w3.org/2000/svg" width="48" height="48" viewBox="0 0 48 48"><g fill="none"><circle cx="24" cy="24" r="24" fill="currentColor"/><path fill="#FFF" d="M36.5319012,13.6787674 C37.9029176,14.0523837 38.9825242,15.1534419 39.3489504,16.551093 C40.0149176,19.0851047 40.0149176,24.3713605 40.0149176,24.3713605 C40.0149176,24.3713605 40.0149176,29.6578837 39.3489504,32.1916279 C38.9825242,33.5892791 37.9029176,34.6906047 36.5319012,35.0639535 C34.0469176,35.7429884 24.0823275,35.7429884 24.0823275,35.7429884 C24.0823275,35.7429884 14.1179996,35.7429884 11.633016,35.0639535 C10.2619996,34.6906047 9.18239306,33.5892791 8.81596683,32.1916279 C8.14999962,29.6578837 8.14999962,24.3713605 8.14999962,24.3713605 C8.14999962,24.3713605 8.14999962,19.0851047 8.81596683,16.551093 C9.18239306,15.1534419 10.2619996,14.0523837 11.633016,13.6787674 C14.1179996,13 24.0823275,13 24.0823275,13 C24.0823275,13 34.0469176,13 36.5319012,13.6787674 Z M29.2809996,24.3029884 L21.0019996,19.4289884 L21.0019996,29.1759884 L29.2809996,24.3029884 Z"/></g></svg>
