<svg width="239" height="47" viewBox="0 0 239 47" fill="none" xmlns="http://www.w3.org/2000/svg">
<g clip-path="url(#clip0)">
<path d="M37.1419 30.037C37.8619 30.037 38.2219 30.959 38.2219 32.797C38.2219 33.797 37.8019 35.008 36.9619 36.428C36.1219 37.848 35.0309 39.149 33.6909 40.328C32.3499 41.508 30.8609 42.478 29.2209 43.238C27.5799 43.998 25.9809 44.377 24.4199 44.377C22.2999 44.377 20.8809 42.518 20.1599 38.797C19.1189 40.518 17.7599 41.928 16.0799 43.028C14.3999 44.13 12.1499 44.678 9.3299 44.678C6.5099 44.678 4.2399 43.799 2.5199 42.037C0.799899 40.277 -0.0401012 38.137 -0.000101207 35.617C-0.000101207 28.818 2.2599 23.458 6.7799 19.537C8.7009 17.898 10.4899 16.818 12.1499 16.298C13.8099 15.779 15.5599 15.518 17.3999 15.518C19.2399 15.518 20.7399 15.838 21.8999 16.478C22.4599 15.319 23.0999 14.739 23.8199 14.739C25.2199 14.739 26.5499 15.348 27.8099 16.569C29.0699 17.79 29.7009 18.938 29.7009 20.018C29.1389 21.338 28.3199 22.918 27.2399 24.758C26.9199 26.598 26.7599 29.178 26.7599 32.499C26.7599 35.82 27.1809 37.478 28.0209 37.478C29.0609 37.478 31.5809 35.4 35.5809 31.24C36.3019 30.437 36.8219 30.037 37.1419 30.037ZM8.8219 33.636C8.8219 36.718 9.9629 38.257 12.2419 38.257C14.6809 38.218 16.7019 36.917 18.3029 34.357C18.8629 33.478 19.3229 32.398 19.6829 31.117C19.6829 26.638 20.0819 22.798 20.8829 19.597C17.6429 20.238 14.8219 21.797 12.4219 24.277C10.0219 26.757 8.8219 29.878 8.8219 33.636Z" fill="#BFBFBF"/>
<path d="M63.6011 25.956C63.6011 24.637 62.8411 23.977 61.3211 23.977C60.2811 23.977 59.1211 24.988 57.8421 27.008C56.5611 29.027 55.6411 31.197 55.0821 33.518V33.637C55.0821 34.998 55.2911 36.399 55.7111 37.838C56.1311 39.278 56.3421 40.278 56.3421 40.838C56.3421 42.197 54.6411 43.537 51.2411 44.858C50.7201 45.057 50.2611 45.159 49.8611 45.159C48.8611 45.159 48.1711 44.638 47.7911 43.598C47.4101 42.559 47.2211 41.149 47.2211 39.368C47.2211 37.589 47.2721 35.909 47.3711 34.329C47.4711 32.749 47.5711 31.29 47.6721 29.948C47.7721 28.608 47.8711 27.428 47.9711 26.409C48.0711 25.388 48.1211 24.559 48.1211 23.919C48.1211 22.56 47.5011 21.879 46.2621 21.879C45.0221 21.879 43.5811 23.329 41.9421 26.229C40.3011 29.131 39.4821 31.43 39.4821 33.129C39.4821 34.83 39.6921 36.4 40.1121 37.84C40.5321 39.28 40.7421 40.28 40.7421 40.84C40.7421 42.199 39.0421 43.539 35.6421 44.86C35.1211 45.059 34.6601 45.161 34.2621 45.161C33.2621 45.161 32.5721 44.64 32.1921 43.6C31.8111 42.561 31.6221 40.959 31.6221 38.799C31.6221 33.119 31.8421 29.02 32.2821 26.5C32.8821 22.779 34.2411 19.26 36.3621 15.939C37.0831 14.82 37.8621 14.259 38.7021 14.259C40.0221 14.259 41.2421 15.339 42.3621 17.499C42.6821 18.06 42.9221 18.579 43.0831 19.059C45.0031 16.66 47.2621 15.458 49.8621 15.458C51.5811 15.458 53.1221 16.028 54.4821 17.169C55.8411 18.309 56.5221 19.739 56.5221 21.458V22.118C58.9621 19.079 61.9421 17.559 65.4621 17.559C67.6221 17.559 69.2631 18.12 70.3821 19.24C71.5021 20.359 72.0631 21.74 72.0631 23.38C72.0631 25.021 71.9431 26.5 71.7031 27.821C71.4631 29.139 71.1931 30.38 70.8931 31.54C70.5931 32.7 70.3231 33.729 70.0831 34.63C69.8431 35.53 69.7221 36.232 69.7221 36.73C69.7221 37.232 69.8821 37.48 70.2021 37.48C70.8021 37.48 71.5421 37.101 72.4231 36.341C73.3021 35.581 74.1831 34.751 75.0631 33.851C75.9431 32.951 76.7521 32.121 77.4931 31.361C78.2321 30.601 78.7431 30.22 79.0231 30.22C79.5831 30.22 79.8631 30.902 79.8631 32.261C79.8631 35.062 78.4531 37.781 75.6331 40.421C72.8141 43.06 69.8031 44.38 66.6041 44.38C63.7231 44.38 62.2841 41.761 62.2841 36.521C62.2841 35.201 62.5041 33.38 62.9441 31.06C63.3801 28.738 63.6011 27.037 63.6011 25.956Z" fill="#BFBFBF"/>
<path d="M96.6011 39.097C93.4411 42.818 89.6501 44.677 85.2311 44.677C80.8101 44.677 77.5011 43.546 75.3011 41.286C73.1011 39.026 72.0211 36.216 72.0611 32.856C72.0211 28.096 73.5211 23.996 76.5611 20.556C79.6011 17.117 83.5821 15.397 88.5011 15.397C90.7401 15.397 92.5401 15.676 93.9001 16.237C96.2601 17.196 97.4401 18.096 97.4401 18.936C97.4401 19.577 95.7901 19.907 92.4911 19.926C89.1901 19.947 86.4301 21.086 84.2101 23.346C81.9911 25.606 80.8801 28.456 80.8801 31.897C80.8801 33.696 81.4101 35.206 82.4711 36.426C83.5311 37.647 85.0311 38.256 86.9711 38.256C88.9101 38.256 90.5211 37.856 91.8011 37.055C88.9601 35.135 87.5401 32.356 87.5401 28.715C87.5001 26.796 88.1901 25.047 89.6101 23.466C91.0301 21.887 92.8501 21.086 95.0701 21.067C97.2901 21.046 98.8801 21.657 99.8411 22.897C100.801 24.137 101.28 25.727 101.28 27.667C101.28 29.607 100.82 31.657 99.9001 33.817H100.26C102.02 33.776 103.539 33.157 104.82 31.956C105.3 31.476 105.71 31.056 106.05 30.696C106.389 30.337 106.74 30.157 107.1 30.157C107.66 30.157 107.94 30.817 107.94 32.135C107.94 34.576 107.22 36.406 105.78 37.625C104.341 38.846 102.751 39.455 101.01 39.455C99.2711 39.457 97.8011 39.337 96.6011 39.097ZM96.0611 32.136C96.7411 30.697 97.0821 29.296 97.0821 27.937C97.0821 26.577 96.6411 25.897 95.7621 25.897C95.4021 25.897 95.1021 26.157 94.8621 26.676C94.6221 27.196 94.5031 27.696 94.5031 28.176C94.5011 29.777 95.0211 31.097 96.0611 32.136Z" fill="#BFBFBF"/>
<path d="M232.509 44.6769C235.825 44.6769 238.513 41.9889 238.513 38.6729C238.513 35.357 235.825 32.6689 232.509 32.6689C229.193 32.6689 226.505 35.357 226.505 38.6729C226.505 41.9889 229.193 44.6769 232.509 44.6769Z" fill="#94D7E7"/>
<path d="M170.615 31.097C171.295 31.097 171.636 32.017 171.636 33.857C171.636 34.857 171.216 36.068 170.376 37.488C169.534 38.908 168.444 40.209 167.105 41.386C165.765 42.568 164.275 43.538 162.636 44.296C160.995 45.058 159.435 45.437 157.956 45.437C156.476 45.437 155.315 45.158 154.476 44.597C153.636 44.037 152.976 43.277 152.496 42.318C151.816 40.959 151.256 38.367 150.816 34.546C150.374 30.728 149.935 28.058 149.496 26.537C148.455 26.337 147.547 25.928 146.766 25.307C145.987 24.688 145.596 23.927 145.596 23.028C145.596 22.128 146.006 21.477 146.826 21.077C147.644 20.679 148.586 20.477 149.646 20.477C150.705 20.477 151.656 20.738 152.496 21.257C153.615 20.337 154.525 19.247 155.226 17.986C155.925 16.726 156.275 15.027 156.275 12.886C156.275 10.747 155.556 9.03597 154.115 7.75597C152.675 6.47597 150.566 5.83597 147.785 5.83597C145.006 5.83597 142.875 6.05597 141.396 6.49597C139.916 6.93597 138.644 7.41697 137.585 7.93597C136.524 8.45597 135.585 8.93596 134.765 9.37496C133.945 9.81496 133.175 10.035 132.456 10.035C131.735 10.035 131.376 9.80496 131.376 9.34496C131.376 8.88596 131.755 8.13596 132.515 7.09496C133.275 6.05497 134.396 5.01597 135.876 3.97497C139.595 1.37497 143.796 0.0849652 148.476 0.105965C153.156 0.125965 157.015 1.01597 160.056 2.77597C163.615 4.85597 165.396 7.97497 165.396 12.135C165.435 15.576 164.535 18.436 162.695 20.715C160.855 22.995 158.576 24.636 155.855 25.635C156.457 26.955 156.945 28.375 157.326 29.894C157.705 31.415 158.076 32.816 158.435 34.095C158.796 35.376 159.205 36.435 159.665 37.275C160.124 38.115 160.685 38.535 161.345 38.535C162.005 38.535 162.806 38.146 163.745 37.365C164.684 36.586 165.614 35.736 166.534 34.816C167.454 33.894 168.284 33.044 169.024 32.265C169.766 31.486 170.295 31.097 170.615 31.097ZM144.516 9.49696C145.036 9.49696 145.297 10.178 145.297 11.537C145.297 12.896 145.215 14.177 145.057 15.377C144.696 17.697 144.237 19.858 143.676 21.858C142.237 27.297 141.516 30.477 141.516 31.396V40.216C141.516 42.376 140.696 43.857 139.057 44.657C138.295 45.016 137.567 45.356 136.866 45.677C136.167 45.997 135.376 46.157 134.497 46.157C132.817 46.157 131.977 44.227 131.977 40.366C131.977 36.507 132.877 31.636 134.676 25.756C136.477 19.876 138.356 15.397 140.317 12.315C140.715 11.715 141.295 11.096 142.057 10.456C142.816 9.81697 143.637 9.49696 144.516 9.49696Z" fill="#94D7E7"/>
<path d="M222.277 31.0969C222.957 31.0969 223.297 32.0169 223.297 33.8569C223.297 34.8569 222.877 36.0679 222.037 37.4879C221.197 38.9079 220.107 40.2089 218.767 41.3859C217.425 42.5679 215.935 43.5379 214.296 44.2959C212.655 45.0579 210.925 45.4369 209.107 45.4369C207.287 45.4369 205.867 44.8469 204.847 43.6669C203.826 42.4869 203.316 41.1669 203.316 39.7059C203.316 38.2469 203.556 36.5969 204.037 34.7569C204.517 32.9169 205.037 30.9969 205.598 28.9969C207.118 23.6769 207.897 19.9369 207.938 17.7769C207.938 16.8569 207.817 16.1469 207.577 15.6459C207.337 15.1459 206.878 14.8959 206.198 14.8959C204.997 14.8959 203.718 15.6169 202.358 17.0559C200.997 18.4959 199.717 20.3359 198.518 22.5759C195.756 27.6969 194.297 32.6969 194.137 37.5779C194.217 38.1379 194.297 38.6969 194.377 39.2579C194.457 39.8189 194.496 40.4179 194.496 41.0569C194.496 42.3379 193.867 43.5079 192.607 44.5689C191.347 45.6279 189.937 46.1589 188.376 46.1589C187.456 46.1589 186.776 45.7079 186.335 44.8069C185.894 43.9089 185.675 42.7969 185.675 41.4789C185.675 40.1589 185.974 38.3579 186.575 36.0789C187.177 33.7979 187.835 31.3779 188.555 28.8169C190.475 22.0589 191.455 17.0189 191.494 13.6979C191.494 12.0169 191.285 10.6979 190.865 9.73692C190.445 8.77792 189.635 8.29792 188.435 8.29792C186.275 8.29792 184.132 9.83792 182.013 12.9179C179.892 15.9989 177.993 20.7779 176.312 27.2579C175.872 28.9379 175.533 30.3989 175.292 31.6369L175.231 32.7779C175.991 36.4599 176.372 38.8579 176.372 39.9789C176.372 42.2989 175.552 43.8579 173.913 44.6589C173.151 45.0179 172.421 45.3579 171.722 45.6789C171.023 45.9989 170.273 46.1589 169.472 46.1589C167.472 46.1589 166.472 44.2489 166.472 40.4289C166.472 36.6089 167.533 29.1399 169.654 18.0179C170.412 14.0189 170.793 11.7789 170.793 11.2979C170.793 8.05792 169.973 6.43892 168.334 6.43892C167.773 6.43892 167.264 6.59892 166.803 6.91792C166.344 7.23792 165.883 7.57692 165.424 7.93892C164.963 8.29792 164.494 8.63792 164.014 8.95892C163.534 9.27892 162.983 9.43892 162.364 9.43892C161.743 9.43892 161.434 8.89792 161.434 7.81792C161.434 5.61892 162.454 3.81892 164.495 2.41892C166.454 0.978916 168.835 0.258916 171.634 0.258916C175.234 0.258916 177.355 1.93992 177.995 5.29892C178.153 6.29892 178.274 7.35992 178.354 8.47892C181.313 2.91992 185.053 0.138916 189.575 0.138916C194.495 0.138916 197.315 2.49992 198.036 7.21892C198.276 8.57892 198.376 10.0389 198.335 11.5989V12.0779C200.935 8.47792 204.015 6.67892 207.575 6.67892C212.616 6.67892 215.136 9.71892 215.136 15.7989C215.136 18.4399 214.726 21.5289 213.906 25.0689C213.086 28.6099 212.486 31.1509 212.107 32.6899C211.726 34.2289 211.537 35.4199 211.537 36.2599C211.537 37.7799 212.066 38.5389 213.127 38.5389C214.186 38.5389 216.717 36.4609 220.717 32.2989C221.437 31.4979 221.957 31.0969 222.277 31.0969Z" fill="#94D7E7"/>
<path d="M136.822 23.135C137.83 23.135 138.338 24.1 138.338 26.027C138.338 27.955 137.904 30.026 137.031 32.238C136.162 34.451 134.843 36.584 133.074 38.636C131.304 40.691 129.045 42.447 126.295 43.898C123.541 45.353 120.299 46.08 116.567 46.08C112.832 46.08 109.562 44.834 106.757 42.336C103.947 39.838 102.546 36.234 102.546 31.525C102.546 26.818 103.204 22.551 104.523 18.727C105.842 14.903 107.583 11.6 109.745 8.819C111.905 6.038 114.363 3.873 117.114 2.324C119.865 0.775 122.475 0 124.945 0C129.269 0 131.431 1.93 131.431 5.784C131.431 7.998 131.025 9.766 130.21 11.094C129.394 12.42 128.567 13.084 127.726 13.084C126.601 13.084 125.62 12.643 124.779 11.756C123.935 10.873 123.009 10.414 121.998 10.383C120.986 10.352 118.243 10.275 115.909 14.025C114.277 16.646 114.528 16.38 113.909 18.15C112.675 21.691 111.951 24.41 111.951 29.15C112.007 31.425 114.042 34.906 115.839 36.045C117.073 36.803 118.546 37.44 120.219 37.229C123.826 36.776 125.852 35.065 127.326 33.485C128.687 32.026 129.887 30.643 131.18 29.155C132.469 27.671 133.606 26.298 134.59 25.033C135.572 23.767 136.314 23.135 136.822 23.135Z" fill="#94D7E7"/>
</g>
<defs>
<clipPath id="clip0">
<rect width="238.514" height="46.158" fill="white"/>
</clipPath>
</defs>
</svg>
